<?xml version="1.0" encoding="UTF-8" standalone="no"?>
<!-- Created with Inkscape (http://www.inkscape.org/) -->

<svg
   xmlns:dc="http://purl.org/dc/elements/1.1/"
   xmlns:cc="http://creativecommons.org/ns#"
   xmlns:rdf="http://www.w3.org/1999/02/22-rdf-syntax-ns#"
   xmlns:svg="http://www.w3.org/2000/svg"
   xmlns="http://www.w3.org/2000/svg"
   xmlns:sodipodi="http://sodipodi.sourceforge.net/DTD/sodipodi-0.dtd"
   xmlns:inkscape="http://www.inkscape.org/namespaces/inkscape"
   width="210mm"
   height="297mm"
   viewBox="0 0 744.09448819 1052.3622047"
   id="svg2"
   version="1.1"
   inkscape:version="0.91 r13725"
   sodipodi:docname="gravure-yoshi-shooting-nintendo-geek-4.svg">
  <title
     id="title3349">Yoshi Shooting</title>
  <defs
     id="defs4" />
  <sodipodi:namedview
     id="base"
     pagecolor="#ffffff"
     bordercolor="#666666"
     borderopacity="1.0"
     inkscape:pageopacity="0.0"
     inkscape:pageshadow="2"
     inkscape:zoom="0.35"
     inkscape:cx="832.2857"
     inkscape:cy="288.57143"
     inkscape:document-units="px"
     inkscape:current-layer="layer1"
     showgrid="false"
     inkscape:window-width="1536"
     inkscape:window-height="877"
     inkscape:window-x="-8"
     inkscape:window-y="-8"
     inkscape:window-maximized="1" />
  <metadata
     id="metadata7">
    <rdf:RDF>
      <cc:Work
         rdf:about="">
        <dc:format>image/svg+xml</dc:format>
        <dc:type
           rdf:resource="http://purl.org/dc/dcmitype/StillImage" />
        <dc:title>Yoshi Shooting</dc:title>
      </cc:Work>
    </rdf:RDF>
  </metadata>
  <g
     inkscape:label="Calque 1"
     inkscape:groupmode="layer"
     id="layer1">
    <path
       style="fill:#000000"
       d="m 532.7616,1032.8112 c -20.8697,-5.5918 -36.39101,-12.6679 -48.14286,-21.9481 -13.70167,-10.82 -21.26638,-23.94597 -22.81202,-39.58244 -0.66241,-6.70145 0.27999,-15.54505 2.33933,-21.95267 0.5288,-1.64531 0.97667,-3.20223 0.99525,-3.45981 0.066,-0.9142 12.30533,-18.17966 17.70608,-24.97712 3.66397,-4.61153 7.7719,-8.83396 9.11693,-9.37102 0.52809,-0.21088 0.96017,-0.48366 0.96017,-0.60617 0,-0.12254 0.98838,-4.21502 2.19639,-9.09439 l 2.19642,-8.8716 -4.95059,0.10608 c -8.9961,0.19279 -14.67123,-1.70172 -19.57797,-6.53567 -4.21172,-4.14923 -7.39396,-11.92053 -7.39396,-18.05669 l 0,-1.7818 -1.8623,-0.55908 c -3.75473,-1.12726 -9.4367,-3.43446 -14.38567,-5.84135 -14.30503,-6.95719 -27.00623,-17.44558 -37.56828,-31.02319 -16.88731,-21.70868 -28.59361,-52.26034 -33.43645,-87.26385 -0.66887,-4.83448 -1.49014,-13.44363 -1.49014,-15.62083 0,-1.40434 -0.14068,-1.8883 -0.68646,-2.36115 -3.45291,-2.99173 -19.3965,-26.38375 -37.86915,-55.56066 l -4.93152,-7.78915 -3.22279,-9.21031 -3.22275,-9.21033 -0.52129,-8.40312 c -0.38526,-6.21015 -0.61044,-8.26043 -0.86301,-7.85637 -0.18795,0.30073 -1.56686,2.32591 -3.06425,4.50045 -16.66884,24.20678 -34.03402,34.69917 -50.73496,30.65499 -6.88708,-1.66768 -16.0043,-7.85512 -18.46101,-12.52858 -2.20003,-4.1852 -3.36764,-11.27112 -2.76757,-16.79572 1.98155,-18.2433 16.53749,-33.69959 43.86096,-46.57387 l 6.01323,-2.8333 0.55964,-1.45976 c 0.30781,-0.80286 1.53559,-3.91845 2.72842,-6.92351 2.10024,-5.29115 2.14707,-5.4703 1.48216,-5.67096 -0.37763,-0.11399 -3.25069,-0.44163 -6.38459,-0.72808 l -5.69798,-0.52087 -8.71463,5.57381 c -14.63113,9.35802 -26.07039,15.82632 -37.21597,21.04373 -7.97618,3.73376 -11.98381,5.3412 -18.62304,7.4695 -7.40592,2.37408 -11.36489,3.1603 -16.84171,3.34465 -4.2358,0.14263 -4.47352,0.11596 -7.61115,-0.85318 -5.4978,-1.69813 -14.44081,-5.21375 -19.81253,-7.78856 -10.05123,-4.81778 -16.5275,-9.85778 -19.09039,-14.85667 -1.22328,-2.38601 -1.25808,-2.5458 -1.25808,-5.77703 0,-3.24353 0.0302,-3.38053 1.26074,-5.71755 2.91282,-5.53203 10.88018,-11.65223 20.60109,-15.82495 1.69227,-0.72643 3.12053,-1.35563 3.17389,-1.39825 0.0534,-0.0426 -1.25833,-0.96121 -2.9149,-2.04131 -9.22199,-6.01275 -16.07036,-12.93348 -18.45572,-18.65068 -0.60961,-1.46114 -0.74404,-2.37202 -0.74682,-5.06014 -0.003,-2.87913 0.0986,-3.48731 0.83424,-4.99543 3.4964,-7.168 15.70464,-12.85105 35.54606,-16.54701 l 4.64819,-0.86584 31.79053,0.29349 c 30.61761,0.28268 32.45917,0.33316 49.91358,1.36862 17.67329,1.04844 18.19976,1.06234 21.21407,0.55962 1.70006,-0.28356 3.20208,-0.60801 3.33778,-0.72106 0.13574,-0.11306 -18.22819,-6.82501 -40.80874,-14.91544 l -41.05553,-14.70991 -24.723,5.73933 c -17.00517,3.94771 -24.89143,5.65255 -25.26256,5.46123 -0.29675,-0.15296 -2.87148,-0.50861 -5.72162,-0.79035 -26.4976,-2.61915 -43.19288,-9.97077 -48.75297,-21.46787 -1.5663,-3.23878 -2.0591,-5.58741 -2.04586,-9.75032 0.0247,-7.76595 3.26686,-15.89957 9.74117,-24.43772 1.13225,-1.4932 1.58047,-2.31747 1.30918,-2.40761 -6.22837,-2.07001 -11.79538,-4.05089 -15.79676,-5.62086 C 81.856415,407.48256 53.269571,384.60564 36.508681,355.31239 29.988916,343.9177 25.051847,330.17902 23.438838,318.94216 c -0.283477,-1.97475 -1.082608,-6.40039 -1.77587,-9.83475 -2.834583,-14.04236 -4.35214,-26.02662 -5.198912,-41.05615 -0.634426,-11.26085 -0.02634,-33.22223 1.162663,-41.99281 0.09308,-0.68687 0.462885,-3.3563 0.821704,-5.93207 2.519076,-18.08294 7.295353,-35.11427 14.009231,-49.95426 1.243005,-2.74749 4.339803,-10.26403 6.881761,-16.70345 5.747076,-14.55876 6.770869,-16.86707 11.354953,-25.60156 22.302018,-42.494252 56.354412,-76.127222 94.060222,-92.9017 16.46917,-7.326767 34.42289,-12.224851 49.71542,-13.563226 4.58618,-0.401375 15.8234,-0.401073 20.40438,6.25e-4 48.49465,4.251501 87.05384,33.915308 111.19901,85.545951 6.79496,14.52987 14.25509,35.67499 17.4039,49.32984 0.297,1.28788 0.59943,2.43971 0.67212,2.55963 0.0727,0.1199 0.74761,-0.43296 1.49988,-1.22859 5.43482,-5.74828 12.68871,-9.65413 19.88144,-10.70516 5.90703,-0.86316 12.00021,0.91772 16.24981,4.74936 l 1.27681,1.1512 2.46138,-4.19818 2.46141,-4.1982 -2.39538,-4.75836 c -4.24261,-8.42789 -5.539,-13.34426 -5.28881,-20.05687 0.11064,-2.96796 0.33534,-4.6042 0.83609,-6.08817 3.37583,-10.00433 14.65524,-16.235157 30.33687,-16.758304 6.10314,-0.203608 10.26185,0.335637 13.1171,1.700834 l 1.78134,0.851716 4.22522,-3.746564 c 18.85316,-16.717412 37.22549,-27.246994 53.10136,-30.433492 4.57702,-0.918661 11.72163,-1.15429 15.72156,-0.518479 12.05623,1.916398 21.5777,9.044762 28.82238,21.578213 1.94694,3.368222 4.52372,8.638016 4.52372,9.251483 0,0.206271 0.22811,0.254697 0.56678,0.120324 3.36738,-1.335971 7.68238,-2.773878 10.30593,-3.434302 20.20737,-5.086732 32.94782,1.19408 37.85342,18.661031 1.72799,6.15272 1.9494,8.34566 1.94625,19.27488 -0.003,10.31121 -0.4038,15.08614 -1.89404,22.56353 -0.40948,2.05458 -0.40229,2.11718 0.25794,2.24572 0.37353,0.0728 3.44831,0.78536 6.83284,1.58362 27.16615,6.40735 54.17076,19.56716 73.68247,35.90676 6.99302,5.85614 16.71053,16.19769 22.57767,24.02758 8.10892,10.82165 14.92084,26.8268 18.20465,42.77334 5.58442,27.11839 2.64415,58.0857 -8.50782,89.60546 -7.47182,21.11835 -22.55892,40.71691 -40.8573,53.07488 -17.25705,11.65468 -37.1939,18.21691 -59.55871,19.6038 l -6.11866,0.37943 -0.40841,1.33575 c -2.58041,8.43947 -17.49874,19.42581 -40.4704,29.8038 -4.60983,2.0826 -15.32663,6.52166 -17.43602,7.22227 -0.47481,0.1577 -0.0516,0.58509 2.10521,2.12587 4.71863,3.37091 9.49818,8.49487 12.91361,13.84413 2.03395,3.18559 5.26572,9.81058 6.62193,13.57476 2.16484,6.00857 4.69343,17.55602 4.70019,21.46472 0.003,1.0104 0.009,1.0147 1.63481,1.0147 2.17677,0 6.17067,0.81675 8.5485,1.74812 4.52886,1.774 8.84073,5.4649 10.92609,9.35269 0.59292,1.10543 1.17205,2.01041 1.28696,2.01103 0.11488,0 2.21987,-2.4224 4.67776,-5.38454 14.77593,-17.80738 30.39889,-35.0052 41.91385,-46.139 9.43139,-9.11918 15.88834,-14.24871 20.87306,-16.58201 2.44442,-1.14423 2.73147,-1.20483 5.70643,-1.20483 1.7229,0 4.41742,0.21599 5.98787,0.47999 24.0748,4.04708 39.36792,29.54036 44.66249,74.4514 1.36998,11.62067 1.62018,16.94755 1.6205,34.49967 l 2.8e-4,17.17177 -1.55023,5.15154 c -9.16468,30.45464 -21.3208,54.84047 -38.10201,76.43468 -12.13918,15.62078 -27.06569,29.42268 -42.45803,39.25905 -4.91707,3.14224 -12.89781,7.45668 -16.05526,8.67961 l -2.30473,0.89266 -2.9426,-1.90735 c -1.61846,-1.04904 -3.01898,-1.90735 -3.11225,-1.90735 -0.0933,0 0.12754,0.7268 0.49073,1.61512 1.94785,4.76373 5.95112,18.84661 7.70603,27.10859 2.60709,12.27385 3.41018,19.65731 3.42991,31.53362 0.021,12.70397 -0.8975,19.45366 -3.84784,28.27349 l -1.40389,4.19678 1.80277,0 c 6.91366,0 12.22485,9.22228 14.38463,24.97714 0.61126,4.45895 0.50703,19.30835 -0.17749,25.28934 -1.4922,13.03804 -4.67518,27.20391 -9.17419,40.82991 -1.00493,3.04365 -1.9732,6.03198 -2.15171,6.64076 -0.29636,1.01061 0.41569,3.31232 8.19053,26.47607 l 8.5151,25.36924 -0.22545,3.43473 c -0.75962,11.57222 -4.30778,21.59024 -11.18133,31.56979 -11.75011,17.05977 -32.31635,31.44067 -60.23262,42.11767 -5.79423,2.216 -13.6912,4.7871 -15.6201,5.0856 -0.70975,0.1098 -2.49419,-0.2086 -5.1361,-0.9165 z m 20.56631,-11.6866 c 26.44682,-4.3637 46.82849,-24.90804 59.32255,-59.79607 0.80059,-2.23549 2.22725,-6.64423 3.17035,-9.79722 l 1.71477,-5.73272 -6.78707,-25.80091 c -3.7329,-14.19051 -6.86028,-26.09367 -6.94969,-26.45147 -0.0895,-0.35779 0.5625,-3.09748 1.44877,-6.08817 2.57374,-8.6849 3.99382,-15.41405 5.13439,-24.32974 0.82003,-6.41015 0.81439,-21.56503 -0.01,-27.31561 -1.3666,-9.53071 -3.65723,-17.91203 -6.59275,-24.12241 l -0.92415,-1.95524 -3.7237,3.67242 -3.7237,3.67239 -2.54252,24.3527 -2.54255,24.3527 3.12786,27.78707 c 2.12439,18.87256 3.32854,28.43811 3.75344,29.81645 1.87218,6.07318 2.63673,13.266 2.22044,20.88965 -0.92386,16.9182 -9.63653,35.67765 -24.6179,53.00547 -3.83729,4.43831 -9.51446,10.01951 -9.85645,9.68981 -0.1212,-0.1168 1.31119,-1.7405 3.18305,-3.6082 18.15338,-18.11313 29.62097,-40.29981 30.65347,-59.3061 0.38968,-7.17356 -0.62053,-16.17079 -2.34434,-20.87894 -0.27018,-0.73799 -1.84103,-13.43911 -3.62972,-29.34813 l -3.15338,-28.04708 0.88672,-8.742 c 0.48769,-4.8081 0.88769,-9.02298 0.88885,-9.36642 0.004,-1.16993 -1.86512,-18.24436 -2.01086,-18.36931 -0.0798,-0.0685 -6.33932,6.46196 -13.91,14.512 -7.57066,8.05004 -14.56645,15.48779 -15.54618,16.5284 l -1.78134,1.89196 -4.37237,-2.02625 c -9.83089,-4.55589 -18.03811,-6.47035 -27.69165,-6.45952 -11.70822,0.0131 -22.27001,2.96966 -32.87199,9.2018 -6.43476,3.7825 -15.22403,10.99003 -15.22403,12.48425 0,2.4186 5.54306,5.99033 12.14546,7.82606 4.9603,1.37914 8.64352,1.79341 14.87278,1.67275 l 5.6102,-0.10871 2.97237,-3.02788 c 4.68015,-4.7676 9.53717,-7.95772 15.75163,-10.34578 4.6222,-1.77622 13.21698,-3.53761 15.98999,-3.27697 l 1.09886,0.10323 -2.88537,2.37198 c -9.06398,7.4513 -18.81533,12.19349 -28.79566,14.00361 -1.0688,0.19383 -2.27726,0.42131 -2.68551,0.50549 -1.48935,0.30705 -5.78548,7.61433 -7.6804,13.0636 -0.87114,2.50511 -2.0836,7.36378 -2.09643,8.40087 -0.006,0.52967 0.0563,0.5242 0.93895,-0.0816 1.63391,-1.12154 5.59044,-2.79066 8.2846,-3.49501 3.52332,-0.9211 11.31511,-1.00805 15.38425,-0.17166 3.10296,0.63779 8.41749,2.29209 10.84995,3.37738 l 1.6194,0.72252 -10.36413,0.24549 c -5.70027,0.135 -14.06928,0.3311 -18.59779,0.43579 l -8.23367,0.19029 -3.59905,3.47564 c -2.04892,1.97865 -4.3849,4.61861 -5.42361,6.12942 -2.23551,3.25152 -5.3039,9.1367 -6.83679,13.11299 -4.18928,10.8669 -7.23815,26.00119 -7.86495,39.04113 -0.11105,2.31029 -0.40462,4.80255 -0.65238,5.53833 -0.59067,1.75425 -0.5736,5.39719 0.0362,7.72887 0.26765,1.02347 1.20469,3.2658 2.08231,4.98297 8.4686,16.57008 33.35254,31.43138 56.70088,33.86308 4.129,0.4301 12.19753,0.1401 16.67977,-0.5995 z M 494.05806,849.24002 c 2.13761,-0.28046 5.41687,-0.79136 7.28728,-1.1354 3.24462,-0.59676 11.06036,-2.39986 11.26736,-2.59939 0.0541,-0.0521 -1.55258,-1.69223 -3.57028,-3.64476 -9.23829,-8.93995 -15.44417,-19.84546 -18.54327,-32.58598 -2.3454,-9.64189 -2.90681,-20.58134 -1.5872,-30.92681 l 0.20135,-1.57871 -3.51936,-0.39265 c -33.86009,-3.77766 -71.14665,-18.6216 -96.71557,-38.5029 -1.7368,-1.35045 -3.15782,-2.30979 -3.15782,-2.13185 0,1.0535 1.5003,10.3699 2.43955,15.14888 6.40727,32.60058 19.60261,59.82325 37.23028,76.80808 6.66889,6.42567 12.58529,10.57104 20.7336,14.52708 8.56983,4.16071 18.02191,6.69533 28.3394,7.59932 3.20896,0.28117 15.87526,-0.097 19.59468,-0.58491 z m 59.26985,-3.27135 c 4.66742,-1.21741 10.15247,-4.01104 15.54619,-7.9179 3.71179,-2.68861 12.73263,-11.51271 16.81045,-16.44382 4.76385,-5.76072 7.21418,-10.69671 9.22194,-18.57674 4.46652,-17.53035 3.72315,-49.46375 -1.93693,-83.20508 -0.60261,-3.59237 -0.9725,-4.65979 -4.65223,-13.42521 -8.09875,-19.29202 -10.74154,-24.95771 -14.44992,-30.97814 -13.88735,-22.54564 -36.29443,-38.00093 -65.28311,-45.02902 -10.69313,-2.59247 -24.07901,-4.06137 -36.87389,-4.04635 -4.51633,0.005 -5.62797,0.11302 -8.6532,0.83845 -8.33024,1.99755 -17.14039,6.38231 -24.05857,11.97381 l -2.26716,1.83239 1.61939,0.25095 c 15.91328,2.46597 16.79572,2.56841 18.78499,2.18107 6.5625,-1.27779 17.02593,-1.85176 24.77674,-1.35913 19.07284,1.21233 37.49026,6.00397 57.72906,15.01934 5.12231,2.28173 15.90084,7.66105 17.23561,8.60191 1.23958,0.87377 0.15754,0.78843 -1.90304,-0.15007 -10.63188,-4.84242 -41.7903,-11.64428 -87.46933,-19.09453 -13.54266,-2.20882 -12.61501,-2.2012 -19.08952,-0.1567 -6.559,2.07117 -12.26389,5.1027 -15.6917,8.33837 -1.77243,1.67309 -3.59506,4.38055 -3.60031,5.34822 -0.003,0.30735 -0.27633,1.08008 -0.61032,1.71719 -2.06929,3.94713 -5.76608,15.17407 -7.32079,22.23283 -1.66572,7.56267 -2.15836,11.63881 -2.33964,19.35727 -0.13538,5.76366 -0.0558,8.2592 0.37106,11.63731 2.48691,19.67962 12.41713,34.78438 29.8152,45.35171 3.60989,2.19259 11.55487,5.94293 15.87007,7.49129 l 3.23879,1.16212 26.39614,1.98637 c 14.51788,1.09251 26.50544,1.98831 26.63905,1.99069 0.65902,0.0115 0.13622,0.6287 -0.53269,0.6287 -1.45538,0 -4.99223,1.25457 -8.66921,3.07509 -3.4574,1.7118 -10.04915,5.55567 -11.78675,6.87324 l -0.786,0.59599 2.50695,0.34327 c 10.12624,1.38655 23.54196,1.94426 31.61484,1.31424 10.25067,-0.79996 17.20059,-2.38694 23.36051,-5.33425 4.09127,-1.95751 6.66194,-3.83517 9.08348,-6.63473 1.21697,-1.407 1.33859,-1.66966 0.86281,-1.86379 -0.30458,-0.12433 -3.7476,-0.93175 -7.65116,-1.7943 -3.90352,-0.86252 -7.15403,-1.62292 -7.22333,-1.68974 -0.57929,-0.55842 6.57995,-3.69992 12.05353,-5.28912 2.92794,-0.85013 3.68954,-0.94282 7.93504,-0.96606 4.41962,-0.024 4.80118,0.0225 6.47758,0.78904 3.20216,1.46447 5.17426,3.97248 6.17288,7.85031 0.47632,1.84977 0.52219,1.79335 -3.69407,4.54608 -12.93067,8.44234 -26.07106,13.46277 -41.18234,15.73423 -3.87978,0.58318 -5.8901,0.68231 -13.9268,0.68661 -8.14614,0.004 -10.00481,-0.0876 -14.00682,-0.69271 -3.78149,-0.57179 -10.26376,-1.98873 -13.92774,-3.04443 -0.44624,-0.12856 -0.72873,-0.0767 -0.72873,0.13366 0,0.66299 3.8357,11.47783 5.45814,15.38938 10.32798,24.89955 23.47031,39.75345 37.94164,42.88277 3.01541,0.65209 9.40681,0.42121 12.79322,-0.46208 z M 417.06882,741.13376 c -14.04332,-26.96445 -19.05703,-53.29016 -14.17385,-74.4233 4.52719,-19.59232 17.02412,-34.69809 37.82687,-45.72343 l 3.71466,-1.96876 7.02717,-17.97248 c 5.8177,-14.87916 6.96191,-18.06637 6.64794,-18.51786 -0.20857,-0.29994 -1.87232,-2.62264 -3.69724,-5.16152 l -3.31801,-4.61619 -1.61814,1.96236 c -6.35716,7.70947 -14.78494,15.33147 -22.78698,20.60824 -10.60215,6.9914 -21.66417,11.08471 -33.63331,12.44547 -4.22115,0.47991 -15.89485,0.20357 -19.96866,-0.47266 -9.61406,-1.59592 -20.08014,-5.18685 -27.66143,-9.49072 l -2.88473,-1.63765 -0.94667,0.87014 c -1.38624,1.27408 -3.72963,4.78671 -4.64986,6.9699 -1.81641,4.30921 -2.2202,6.80595 -2.21977,13.72581 0,7.12957 0.508,10.77385 2.60894,18.73285 4.91438,18.61704 17.23143,44.2718 32.96045,68.65223 l 2.29387,3.55559 4.61097,-0.16638 c 4.09337,-0.1477 4.62797,-0.10871 4.76238,0.34709 0.0833,0.2824 0.48177,2.60387 0.88555,5.15885 0.47056,2.97767 0.91431,4.82085 1.23605,5.13423 1.64958,1.60665 18.67577,13.43629 26.53433,18.43581 5.44538,3.46426 6.78906,4.20437 6.44947,3.55238 z m 195.85283,-53.88571 c 21.25762,-12.71573 40.63304,-30.89755 54.33183,-50.98488 15.57471,-22.83812 24.6235,-47.83302 27.61945,-76.29168 0.70838,-6.72878 0.97329,-22.18401 0.50571,-29.50425 -0.31685,-4.96083 -1.5668,-17.33528 -1.77236,-17.54673 -0.0336,-0.0345 -2.44377,2.64098 -5.356,5.94554 l -5.29496,6.00832 -1.09785,3.88919 c -11.40287,40.39486 -32.21783,73.01428 -60.39796,94.65046 -5.78869,4.44447 -15.16638,10.25784 -18.99983,11.77835 -0.77279,0.3065 -1.01323,0.56339 -0.86667,0.92594 0.59965,1.48326 3.63609,22.94164 4.5331,32.03538 0.99295,10.06644 0.96192,19.93553 -0.0709,22.52997 -0.22011,0.5529 2.33998,-0.72802 6.86639,-3.43561 z m -24.95722,-3.63404 c 2.42437,-12.71686 2.20433,-25.07062 -0.66683,-37.43938 -3.78935,-16.32428 -12.49123,-31.70476 -25.26446,-44.65465 -11.6398,-11.80076 -27.53316,-22.1918 -47.17927,-30.84567 l -3.30635,-1.45641 -5.82982,0 c -7.99288,0.003 -14.04209,1.02549 -20.21179,3.4198 -14.39539,5.58652 -24.91808,18.78917 -28.52898,35.79486 -0.39092,1.84119 -0.66084,3.46607 -0.59982,3.61087 0.0611,0.14481 4.84752,-0.68271 10.63663,-1.83896 9.38436,-1.87429 11.1496,-2.15905 10.66146,-1.71981 -0.0742,0.0669 -5.81904,3.45431 -12.76625,7.52783 -6.9472,4.07349 -12.26691,7.32732 -11.82158,7.23072 2.20689,-0.47868 8.65418,-1.47907 11.82158,-1.83431 5.38219,-0.60361 19.95409,-0.5027 25.74838,0.17833 23.66979,2.78205 44.32553,11.47359 63.09733,26.55022 10.9198,8.77032 22.27269,21.53551 30.91987,34.76633 1.26278,1.93214 2.39934,3.513 2.52565,3.513 0.12631,0 0.47024,-1.2619 0.76425,-2.80421 z M 281.45527,648.06302 c 4.95043,-1.24736 9.36662,-2.87221 11.47636,-4.22256 4.86706,-3.11516 13.84204,-11.36404 20.59879,-18.9323 12.26083,-13.73336 24.81243,-31.27339 36.86141,-51.51146 1.99357,-3.3485 3.75987,-6.21931 3.92512,-6.37957 0.65855,-0.63876 0.60371,0.12675 -0.12363,1.72642 -3.04404,6.69471 -4.50136,14.71936 -3.45786,19.04028 2.31253,9.57562 12.48256,12.09868 30.77466,7.63482 4.39756,-1.07313 12.24803,-3.54347 17.64027,-5.55091 l 2.90376,-1.08104 3.96146,-7.11642 c 4.11631,-7.39463 4.85819,-8.52182 4.52061,-6.86862 -0.79228,3.88008 -3.13162,17.78993 -3.05259,18.15092 0.0578,0.26418 2.09915,-1.59177 4.92626,-4.47891 6.76849,-6.91223 11.28533,-11.35653 11.41495,-11.23162 0.0607,0.0585 -1.13186,3.17459 -2.65007,6.92466 -1.51819,3.75004 -2.71991,6.93125 -2.67045,7.06934 0.14543,0.40597 9.97071,-7.87876 15.58406,-13.14053 8.64772,-8.10621 14.52719,-14.97785 17.57376,-20.53951 l 1.32771,-2.42384 9.65736,-7.25879 c 5.31155,-3.99235 9.71656,-7.20172 9.78895,-7.13194 0.0724,0.0698 -4.59228,7.07333 -10.36597,15.56347 l -10.49764,15.43659 5.3727,3.09326 5.37267,3.09323 3.2388,-2.10958 c 3.76926,-2.45512 12.8495,-6.88538 17.43336,-8.50574 4.79059,-1.69348 10.25874,-3.13818 14.95453,-3.95113 3.7077,-0.64188 5.21585,-0.72849 12.63128,-0.72534 9.16739,0.003 11.06396,0.2169 18.29916,2.05515 24.18605,6.14501 45.76154,25.07991 64.43293,56.5472 1.54008,2.59554 3.15818,4.97426 3.59575,5.28606 0.43758,0.31178 1.80164,0.80449 3.03121,1.09485 4.34441,1.02597 9.85958,-0.45796 15.78628,-4.24746 18.34263,-11.7281 38.96218,-43.87183 61.34848,-95.63572 3.60192,-8.32878 4.65553,-10.01571 8.10863,-12.98255 2.07337,-1.7814 4.90696,-3.315 6.68881,-3.62016 0.668,-0.11439 1.21455,-0.28223 1.21455,-0.37299 0,-0.0907 -0.51986,-1.94598 -1.15528,-4.12271 -3.70984,-12.70908 -8.57534,-23.13325 -14.39451,-30.83985 -2.26022,-2.99329 -7.98223,-8.26537 -10.79579,-9.94692 -4.44297,-2.65535 -10.90721,-4.33787 -14.44951,-3.76096 -1.22426,0.19938 -1.59669,0.54993 -5.4218,5.10357 -21.73554,25.87513 -40.54744,45.35123 -56.65077,58.65096 -14.69328,12.1352 -28.07104,19.84654 -37.76311,21.76782 -3.65858,0.72524 -8.84838,0.65633 -11.33279,-0.15045 -3.09933,-1.0065 -6.38577,-3.47539 -5.40447,-4.06004 0.1931,-0.11505 2.91776,-0.89471 6.05482,-1.73263 l 5.70373,-1.52348 -3.06389,-0.23779 c -13.09285,-1.01606 -26.18941,-5.28244 -36.90929,-12.02364 -3.29559,-2.07245 -8.41285,-5.99467 -10.01572,-7.67681 -0.43186,-0.45319 -0.917,-0.824 -1.07807,-0.824 -0.16109,0 -1.33807,0.81235 -2.61554,1.80522 -2.12795,1.65389 -4.104,2.80087 -4.104,2.38213 0,-0.0937 0.3747,-0.64379 0.83262,-1.22254 2.19801,-2.77795 7.14817,-17.80953 8.58487,-26.06866 0.54515,-3.13395 0.55648,-8.51483 0.0221,-10.53145 -1.31028,-4.9452 -5.36496,-6.52094 -11.77105,-4.57454 -3.86165,1.17331 -5.24639,1.9383 -8.46147,4.67441 l -2.85788,2.43212 -4.00904,7.66823 c -16.26552,31.1117 -31.65634,48.51814 -47.27793,53.46958 -1.91374,0.60657 -2.94876,0.71859 -6.63953,0.71859 -4.00162,0 -4.55085,-0.0709 -6.47757,-0.83626 -1.15787,-0.45993 -5.82173,-2.19652 -10.36413,-3.8591 -10.75819,-3.93765 -81.88376,-30.39551 -84.53241,-31.44505 -1.08179,-0.42867 -1.28479,-0.45168 -7.44921,-0.84386 -8.0854,-0.51436 -42.17805,-0.93296 -76.70536,-0.94182 -34.64648,-0.009 -31.44653,-0.20019 -39.72914,2.37511 -11.22597,3.49052 -17.14586,8.2421 -16.56018,13.29202 0.64397,5.55248 8.97624,12.76134 21.84166,18.89685 l 4.97393,2.37205 4.58867,-0.39888 c 2.52376,-0.21942 13.62489,-1.20652 24.66915,-2.19362 l 20.08051,-1.7947 21.0998,-10.34631 c 11.60489,-5.69048 21.26053,-10.34631 21.45698,-10.34631 0.19645,0 0.355,0.10532 0.35235,0.23417 -0.002,0.12878 -11.25394,6.61362 -25.00283,14.41073 l -24.998,14.17661 -26.08908,2.7258 c -14.349,1.49918 -26.74493,2.88976 -27.54653,3.09017 -10.27328,2.56846 -16.69728,6.32589 -17.84599,10.43822 -1.59608,5.71393 6.09777,13.73317 19.70414,20.53745 2.09535,1.04785 4.33477,2.30405 4.97648,2.79153 1.52809,1.16085 3.87176,2.27511 6.28247,2.98689 3.05985,0.90349 12.12141,0.81725 16.67976,-0.15867 17.72507,-3.7949 40.35855,-15.92866 66.7109,-35.76353 3.10406,-2.33639 5.82369,-4.24796 6.0436,-4.24796 0.21991,0 4.00969,1.19382 8.42175,2.65292 4.41205,1.4591 8.11806,2.54795 8.23557,2.41965 0.11751,-0.12828 1.32851,-5.0001 2.69111,-10.82623 1.36262,-5.82614 2.5486,-10.66156 2.63553,-10.74538 0.0869,-0.0838 0.23047,-0.0826 0.31892,0.003 0.19254,0.18558 2.42307,20.53623 2.42728,22.14539 0.01,3.71357 -4.49813,11.48354 -11.04702,19.04143 -8.44394,9.74499 -26.01015,24.98132 -41.00035,35.56232 l -3.3065,2.33392 -1.29021,3.75269 c -1.9127,5.56329 -2.70559,9.63103 -2.73975,14.05576 -0.0213,2.75554 0.12403,4.24209 0.54939,5.61985 1.18102,3.8255 3.87566,6.45272 7.67513,7.48313 2.86177,0.7761 8.94838,0.45274 13.61602,-0.72337 z M 423.45244,539.52523 c 3.74457,-1.05734 8.00594,-3.10628 11.55652,-5.5565 5.03535,-3.47488 6.25252,-4.68171 9.62556,-9.54398 8.35851,-12.04882 46.42915,-68.89904 52.82307,-78.87975 2.20014,-3.43435 4.0367,-6.29212 4.08123,-6.35056 0.15842,-0.20787 4.34063,3.19023 4.33056,3.51859 -0.005,0.18383 -2.46019,3.70616 -5.45455,7.8274 -2.99433,4.12122 -5.32835,7.53782 -5.18672,7.59242 0.65734,0.25336 19.37327,-4.93685 29.13686,-8.08014 19.30529,-6.21508 33.15945,-12.72582 39.12241,-18.38548 2.01553,-1.91302 3.92574,-4.93959 3.33841,-5.2895 -0.17767,-0.10585 -15.95294,-3.20131 -35.05617,-6.87882 -39.36658,-7.57838 -35.27009,-7.14315 -37.86588,-4.02313 -3.01753,3.62687 -6.70696,9.84377 -16.3623,27.57151 -13.5389,24.85806 -20.11111,36.28927 -26.51682,46.1213 -11.0801,17.00675 -20.42608,26.93182 -27.82722,29.55157 -3.97598,1.40734 -8.3445,0.59159 -15.17675,-2.83402 -17.30586,-8.677 -28.42275,-29.43175 -32.32552,-60.35028 -1.95214,-15.46526 -2.13708,-37.3781 -0.48747,-57.75962 1.92847,-23.82685 6.11153,-50.57929 11.80772,-75.51525 0.73829,-3.23188 1.29548,-5.91823 1.23829,-5.96966 -0.0573,-0.0514 -9.21248,3.68517 -20.34505,8.3035 -11.13253,4.61833 -20.27806,8.39696 -20.32339,8.39696 -0.16001,0 -0.0741,-3.61146 0.12355,-5.19783 l 0.20035,-1.60736 6.84121,-2.72752 c 16.22248,-6.46763 36.22692,-15.61926 48.13579,-22.02114 6.63839,-3.56864 16.86082,-9.67993 17.07713,-10.20926 0.47077,-1.152 -12.74713,-14.97342 -18.69653,-19.55021 -9.29286,-7.14886 -19.3342,-11.77612 -28.98716,-13.35791 -3.24634,-0.53196 -4.84688,-0.61309 -9.71637,-0.49248 -6.09693,0.15101 -9.12701,0.61101 -14.57455,2.21253 -20.90095,6.1447 -43.2509,25.51768 -58.94796,51.09619 -2.77252,4.51784 -6.62239,12.0608 -7.91958,15.51662 l -0.99205,2.64292 0.84641,3.63794 c 4.04776,17.39764 16.37872,32.08801 36.62783,43.63621 5.85978,3.34185 17.031,8.58162 17.44512,8.18242 0.0969,-0.0934 0.004,-0.82974 -0.2069,-1.63632 -1.89274,-7.24615 5.37558,-19.47997 11.59772,-19.52093 1.33645,-0.009 3.00469,0.76816 3.76422,1.75317 0.59141,0.76698 0.58532,0.79153 -0.89883,3.64292 -4.14228,7.95812 -4.51342,22.62113 -1.1453,45.24719 2.32199,15.59819 4.42483,24.6114 12.62146,54.09769 7.16807,25.78605 7.52323,26.8518 11.49489,34.49221 11.29152,21.72183 25.21117,35.0618 39.08439,37.45667 3.05405,0.52724 8.81569,0.16497 12.09237,-0.76028 z m 137.48663,-5.11131 c 4.03113,-0.68512 10.73348,-2.43275 11.55745,-3.01353 0.55711,-0.39269 0.55173,-0.47156 -0.12275,-1.80987 -1.51737,-3.01071 -6.65305,-7.48537 -13.70185,-11.93816 -5.97819,-3.77652 -9.18693,-5.34464 -11.46302,-5.60206 -8.74023,-0.98851 -24.67372,-6.90889 -33.09555,-12.29727 l -2.29231,-1.46666 -6.38301,7.19232 -6.38297,7.19236 2.35968,2.14481 c 6.01874,5.47064 12.77269,10.00456 20.02498,13.44279 8.34734,3.95734 14.49411,5.69397 24.27704,6.85897 2.4549,0.29232 11.94252,-0.14627 15.22231,-0.7037 z m -186.00082,-6.36633 c -7.55767,-12.47936 -16.88697,-30.05845 -22.24432,-41.91475 -4.86881,-10.77517 -8.18423,-20.27593 -9.58767,-27.47485 -0.57916,-2.97081 -0.79159,-8.78114 -0.37382,-10.22501 0.22258,-0.76923 0.16532,-0.85859 -0.55001,-0.85859 -1.09439,0 -5.16898,2.07841 -8.3732,4.2711 -3.42661,2.34482 -11.33606,9.89965 -13.45886,12.85541 l -1.6492,2.29637 0.79296,1.50849 c 3.06065,5.82239 5.49011,16.45016 3.89526,17.04009 -0.80118,0.29638 -3.70699,-1.48053 -5.53684,-3.38578 -1.95461,-2.0352 -2.73762,-3.94667 -2.73762,-6.68307 0,-1.7946 1.23586,-5.93156 2.24283,-7.50772 l 0.63363,-0.99178 -1.28784,-1.41037 c -1.49868,-1.6413 -1.36333,-1.58994 -5.86535,-2.2259 -14.53919,-2.05386 -29.18148,-9.58634 -38.3094,-19.70764 -1.22,-1.35276 -2.37932,-2.4989 -2.57626,-2.54695 -0.19693,-0.048 -2.86542,1.04083 -5.92996,2.41967 -3.06454,1.37886 -5.73489,2.50702 -5.93409,2.50702 -0.19921,0 0.15928,-0.66737 0.79664,-1.48303 0.63737,-0.81566 3.03597,-4.15244 5.33023,-7.41508 17.54001,-24.94342 28.67781,-47.22961 31.44075,-62.91143 0.37061,-2.10348 0.67384,-4.56445 0.67384,-5.46875 0,-1.51477 -0.067,-1.66041 -0.85111,-1.85012 -1.19389,-0.28886 -4.21987,-3.16266 -6.34604,-6.02691 -2.10795,-2.83972 -5.48426,-8.45895 -6.11869,-10.18344 l -0.44374,-1.20617 -1.99201,0.19673 c -10.9515,1.0816 -20.98851,12.04453 -29.04086,31.71986 -2.82146,6.89403 -6.57318,18.66838 -7.30385,22.92233 -0.27856,1.62174 -1.01985,1.8765 -1.01985,0.35049 0,-1.5931 -0.8886,-5.55454 -1.59771,-7.12267 -2.40005,-5.30742 -6.85088,-6.80084 -13.69256,-4.59429 -3.69964,1.19316 -7.12139,2.96619 -11.76413,6.09564 -3.91887,2.64155 -4.95762,3.45452 -11.81108,9.24401 -6.58278,5.5608 -9.60476,9.07653 -12.1679,14.15597 -2.16882,4.29803 -2.81548,7.02264 -2.81693,11.86882 -9.7e-4,3.38318 0.14036,4.57847 0.84934,7.18092 1.55752,5.71721 5.78281,12.81103 10.23963,17.1913 0.89579,0.88041 1.62871,1.69279 1.62871,1.80531 0,0.30994 -2.60605,0.24487 -4.56967,-0.11411 -6.18274,-1.13031 -10.72804,-5.89576 -12.20913,-12.8005 -0.35184,-1.64022 -0.7039,-2.54112 -1.02776,-2.62993 -0.27093,-0.0743 -9.20073,-1.98728 -19.84401,-4.25102 l -19.35141,-4.11592 -1.86266,1.34217 c -6.75463,4.8672 -11.10684,11.66811 -10.68776,16.701 0.46204,5.5488 4.83494,10.00112 13.93957,14.19278 9.94607,4.5791 26.13474,8.27767 45.89646,10.48591 l 4.69625,0.52477 13.9764,-4.41374 13.97641,-4.41377 5.2489,0 5.2489,0 36.23627,12.33945 36.23627,12.33945 12.22913,1.25238 c 6.72601,0.68884 12.55705,1.32061 12.95785,1.40394 0.81806,0.17009 0.90268,0.97105 0.51766,4.90088 l -0.20647,2.10745 -6.87145,0 -6.87145,0 -0.20424,1.63913 c -0.11232,0.90151 -0.20534,2.06061 -0.2067,2.57576 l -0.003,0.93664 7.36789,2.45361 c 26.58998,8.85479 47.5993,15.92113 48.01471,16.1494 0.96143,0.52833 1.01976,0.26378 0.22959,-1.04096 z m 43.30376,-15.06405 c 9.19515,-1.87785 18.95304,-11.37858 29.02033,-28.25567 3.17431,-5.32146 9.41736,-17.6558 12.48421,-24.66491 1.39002,-3.17678 7.67638,-16.79834 13.96968,-30.27017 9.13546,-19.5559 11.35999,-24.57044 11.0339,-24.87244 -0.7386,-0.684 -30.46771,-19.796 -30.59787,-19.67053 -0.07,0.0674 0.099,2.4217 0.3756,5.23175 3.14181,31.92746 -0.80779,57.06765 -11.77844,74.97239 -5.94347,9.70008 -14.95515,17.68203 -25.12679,22.25563 -6.93406,3.11783 -15.65978,5.12973 -22.26669,5.13402 -1.55866,0 -2.83394,0.0748 -2.83394,0.16419 0,0.47556 3.2341,6.28618 4.77531,8.57964 2.49267,3.70936 7.32999,8.27639 10.37436,9.79475 2.29086,1.14252 5.38471,1.9997 7.35992,2.03913 0.5344,0.011 1.9791,-0.18633 3.21042,-0.43778 z m 130.38965,-2.50006 c 0,-0.60214 -0.22033,-2.50892 -0.48964,-4.23727 -2.42545,-15.56694 -8.51308,-27.87595 -18.23539,-36.87156 -3.49867,-3.23719 -6.15379,-5.18132 -9.4603,-6.92704 l -2.11308,-1.11563 -16.66038,2.64823 c -9.16318,1.45652 -16.75227,2.75158 -16.86467,2.8779 -0.17663,0.19857 -0.95842,7.44949 -0.95395,8.84787 0,0.45078 0.17101,0.45752 1.70199,0.0676 0.9352,-0.23816 3.17459,-0.59514 4.97643,-0.7933 5.63556,-0.61984 11.39083,0.73005 15.0616,3.53267 3.97131,3.03204 6.50932,9.16901 6.89013,16.66046 l 0.14216,2.79632 2.26462,1.43737 c 7.23621,4.59279 20.62462,9.80325 29.69145,11.55517 4.13,0.79802 4.04903,0.80761 4.04903,-0.47884 z M 396.73243,478.48385 c 13.68081,-1.12628 24.20561,-4.25099 32.74678,-9.72223 3.69712,-2.36827 9.56564,-7.92374 11.75309,-11.12618 7.22101,-10.57149 9.66824,-23.75825 7.31364,-39.40918 -3.02163,-20.08458 -13.93094,-41.31442 -28.31703,-55.1058 -2.50773,-2.40405 -5.7577,-5.19144 -7.22214,-6.19417 -9.36121,-6.40992 -17.53417,-8.61949 -24.88628,-6.72806 -1.40904,0.36248 -2.81694,0.65221 -3.12868,0.64382 -0.31173,-0.009 -0.56678,0.0442 -0.56678,0.11673 0,0.0727 -0.37051,1.36348 -0.82337,2.8686 -4.26782,14.18507 -4.2567,47.82684 0.0315,95.6203 0.81337,9.06482 2.57669,26.05661 2.92412,28.17733 l 0.19183,1.1708 3.12935,-0.003 c 1.72116,0 4.80543,-0.14065 6.85396,-0.30928 z m -84.60829,-26.54776 c 2.4788,-0.29964 8.73226,-1.67475 9.06213,-1.99274 0.0808,-0.0779 1.46105,-4.5415 3.06726,-9.9192 1.60622,-5.3777 3.0856,-9.94452 3.28751,-10.14849 0.20189,-0.204 2.69904,-1.24049 5.54918,-2.3034 2.85013,-1.06286 5.2845,-2.02036 5.40971,-2.12776 0.12521,-0.10739 -0.21531,-1.88078 -0.75677,-3.94089 -1.58274,-6.02212 -3.14888,-13.7137 -3.73994,-18.36738 -0.44795,-3.52711 -0.47905,-4.64349 -0.16896,-6.06857 0.209,-0.96046 0.34568,-1.77424 0.3038,-1.8084 -0.0419,-0.0342 -6.92625,-3.93525 -15.29852,-8.66913 l -15.22232,-8.60702 -0.37561,2.24731 c -0.49656,2.971 -1.39258,5.64146 -3.56383,10.62159 -1.9207,4.40543 -7.60975,15.54961 -10.84533,21.24473 -5.42126,9.54227 -11.89181,20.28028 -12.31795,20.44192 -0.74622,0.28308 4.475,7.06656 7.78664,10.11655 7.96633,7.33688 17.52561,10.52555 27.823,9.28088 z m -134.53739,-25.7562 c 1.80419,-0.26189 4.2823,-0.723 5.5069,-1.02472 l 2.22655,-0.54857 2.63827,-4.99317 c 12.13606,-22.96879 31.05479,-37.27259 52.01654,-39.32797 l 2.10521,-0.20643 2.10522,-4.25401 c 5.1635,-10.43391 11.69906,-20.24028 17.28392,-25.93388 3.61268,-3.68301 8.65616,-6.76312 12.39484,-7.56966 0.95562,-0.20617 1.7375,-0.48406 1.7375,-0.61759 0,-0.13351 -0.29186,-1.41074 -0.64857,-2.83832 -2.05577,-8.22714 -2.75298,-14.74899 -2.74733,-25.69938 0.005,-11.25962 0.54472,-15.89644 2.92113,-25.13323 3.24842,-12.62618 9.18755,-24.2746 17.51061,-34.34356 2.90027,-3.50864 10.84915,-11.12449 14.71679,-14.1002 5.0907,-3.91672 14.07449,-9.60836 18.20097,-11.53115 l 1.5337,-0.71465 8.28731,-15.06588 8.28729,-15.06588 -0.42849,-1.45935 -0.42853,-1.45935 -4.4841,5.36789 c -2.46627,2.95234 -4.55691,5.29772 -4.64592,5.21195 -0.0889,-0.0858 -0.007,-1.81692 0.18109,-3.84699 1.10821,-11.9316 1.27145,-30.19024 0.36238,-40.53231 -2.96232,-33.70145 -13.32626,-61.189251 -31.2486,-82.879208 -22.06394,-26.70224 -55.20372,-44.236576 -95.87014,-50.725117 -2.7698,-0.441936 -11.29483,-1.445889 -11.98351,-1.411243 -0.17814,0.009 1.45085,0.620448 3.61995,1.358856 10.05073,3.421452 18.65584,8.861644 25.03901,15.82977 15.71139,17.151197 18.08471,42.899814 6.96047,75.515742 -1.66408,4.87905 -2.1249,5.84032 -5.03052,10.49363 -16.97607,27.18691 -34.95512,47.82754 -53.48792,61.40613 -11.17497,8.18767 -23.32486,14.06642 -34.58952,16.73623 -6.89434,1.63401 -10.61244,2.0074 -18.13722,1.82141 -9.50576,-0.23494 -13.83006,-1.22766 -21.861828,-5.01877 -12.944675,-6.11007 -22.13968,-15.07814 -27.363286,-26.688 -4.99645,-11.10499 -6.320491,-25.38766 -3.726489,-40.19847 0.743099,-4.24283 2.071512,-9.79991 2.759848,-11.54518 0.182341,-0.46234 0.398302,-1.48904 0.479903,-2.28158 0.184047,-1.78755 3.82032,-8.95749 7.776962,-15.33449 8.310658,-13.394476 19.200306,-27.668956 29.05797,-38.090137 1.70555,-1.803032 3.04746,-3.331062 2.98202,-3.395607 -0.21969,-0.21677 -4.47908,3.710817 -9.21396,8.496191 -16.863813,17.043679 -35.66394,39.495523 -44.35567,52.971253 -4.895741,7.59041 -7.215308,12.37527 -7.941539,16.38197 -0.299588,1.65292 -0.736926,2.6958 -1.771392,4.22417 -8.783993,12.97778 -16.233304,42.9447 -20.567072,82.73674 -1.419887,13.03719 -3.095273,34.39049 -3.095273,39.45022 l 0,2.16451 4.129462,-3.86975 c 16.077704,-15.06655 34.812896,-21.42251 52.776966,-17.90471 19.864843,3.89002 39.449958,20.14884 56.865588,47.20766 6.66138,10.34983 7.49109,12.12339 9.74956,20.84036 2.43196,9.38659 3.18614,20.30962 1.99714,28.92519 -3.08658,22.36556 -18.77677,42.04904 -42.82709,53.72701 l -4.61437,2.24054 1.8511,1.12472 c 10.5677,6.42091 26.14254,13.44014 37.96359,17.10933 6.78992,2.10757 15.86122,4.01211 21.53794,4.5219 3.6648,0.3291 12.4798,0.1842 15.50464,-0.25486 z m 34.37273,-158.29188 c -3.67143,-0.65161 -7.33317,-1.79429 -10.52606,-3.28478 -6.02952,-2.81464 -11.73774,-7.25317 -13.50594,-10.50177 -2.56208,-4.70716 -3.64943,-10.8337 -3.00999,-16.9594 1.15196,-11.03555 7.0485,-21.99205 17.55876,-32.62639 3.06909,-3.10531 3.10209,-3.12754 6.12253,-4.12369 8.29249,-2.73485 17.83596,-5.14478 25.22253,-6.36919 3.73126,-0.6185 5.51212,-0.726 12.14546,-0.73319 8.40649,-0.009 9.86073,0.18423 14.36515,1.90974 11.18761,4.28564 15.11275,14.82128 11.06402,29.69742 -3.01139,11.06461 -10.92329,23.69115 -19.12232,30.51714 -2.45296,2.04218 -5.14405,3.73759 -6.86842,4.32715 -0.5818,0.19892 -2.36953,1.11459 -3.97273,2.03482 -4.81561,2.76411 -10.0283,4.78282 -15.06037,5.83239 -3.41814,0.71294 -11.12858,0.8626 -14.41262,0.27975 z m 15.04111,-6.89926 c 5.55255,-0.92332 13.07452,-3.40282 18.6423,-6.14512 2.12714,-1.04769 3.29076,-1.95001 6.49934,-5.03982 4.48592,-4.31989 7.45876,-8.17709 10.01457,-12.99372 5.23509,-9.86594 6.04801,-19.21932 2.55669,-29.41722 -0.95601,-2.79244 -1.86769,-3.97007 -4.16088,-5.37467 -7.35631,-4.50581 -19.31077,-4.76729 -34.99021,-0.76535 -6.48576,1.6554 -17.46439,5.45059 -17.15651,5.93081 0.0812,0.12649 -0.88281,0.82 -2.14201,1.54115 -9.78998,5.60663 -15.48594,17.41021 -16.07371,33.30906 l -0.18661,5.04793 1.16736,1.53298 c 1.54575,2.0299 5.77087,5.88717 7.99535,7.29927 8.05722,5.11473 17.37621,6.81376 27.83432,5.0747 z m 355.47643,155.81587 c 10.27791,-0.5676 24.1943,-3.78484 34.33117,-7.93679 26.66502,-10.92166 48.032,-30.41944 65.29406,-59.58207 2.39334,-4.04333 3.17949,-5.72994 4.50478,-9.66441 3.18087,-9.44338 5.92012,-20.48446 7.26051,-29.26508 1.91115,-12.51932 2.03433,-27.3115 0.32852,-39.44865 -3.10665,-22.104 -13.02859,-43.97174 -27.78364,-61.23445 -6.76832,-7.91865 -12.84005,-13.47404 -21.5887,-19.7528 -3.11733,-2.23727 -5.86185,-4.21547 -6.09893,-4.396 -0.34914,-0.26587 -0.3894,-0.11436 -0.21199,0.79737 0.49965,2.56746 -2.05429,6.99016 -4.63059,8.01887 -0.82326,0.32873 -1.11304,0.25352 -2.80314,-0.72752 -5.2081,-3.02323 -10.03008,-2.88806 -13.58364,0.38076 -1.65421,1.52166 -3.59503,4.40626 -4.25671,6.32664 -0.29207,0.84775 -0.65851,1.54137 -0.81426,1.54137 -0.51776,0 -0.73143,-2.2524 -0.53071,-5.59473 0.58816,-9.7942 4.7184,-15.57962 11.54852,-16.17665 l 2.0063,-0.17538 -2.21498,-0.92096 c -11.65669,-4.84672 -28.80243,-10.41535 -41.62978,-13.5206 -17.31179,-4.19086 -30.59947,-5.8642 -46.57506,-5.86527 -16.05614,-9.3e-4 -27.70079,1.70233 -41.0776,6.00894 -24.08646,7.75453 -44.60108,23.68493 -57.00831,44.26914 -0.74543,1.2367 -1.31653,2.36338 -1.26915,2.50375 0.11835,0.3506 -1.31799,1.80357 -1.55607,1.57407 -0.10534,-0.10159 -0.0213,-0.49099 0.18629,-0.86533 0.3198,-0.57605 0.26163,-0.80082 -0.37861,-1.46299 -1.92445,-1.99031 -7.60044,-3.7923 -14.03066,-4.45438 -1.95682,-0.20147 -8.73399,-0.48423 -15.06037,-0.62833 -9.71832,-0.22136 -11.79143,-0.35034 -13.36487,-0.83151 -1.46063,-0.44665 -1.86143,-0.70546 -1.85823,-1.19993 0.003,-0.34675 0.58386,-2.92312 1.29245,-5.72526 6.33254,-25.04174 17.28095,-49.47378 29.89584,-66.71444 16.02672,-21.90357 34.95547,-34.411046 57.71241,-38.134389 4.51092,-0.738043 13.54494,-0.735731 17.48947,0.0044 8.34454,1.565913 14.29935,4.460017 19.13223,9.298516 4.31942,4.32444 7.46451,9.89061 9.23431,16.34282 0.56521,2.06061 1.08519,3.94212 1.15548,4.18111 0.0833,0.28327 0.88636,-0.26533 2.30654,-1.57569 6.23651,-5.75427 16.23569,-11.93528 22.5831,-13.95976 5.3727,-1.71362 8.9002,-1.58743 11.62259,0.41578 0.77326,0.56897 1.99345,1.13019 2.71154,1.24714 3.66467,0.59684 7.77563,3.80554 10.02915,7.82796 1.31653,2.35002 1.3336,1.88211 0.0593,-1.62406 -2.1242,-5.84421 -4.65126,-10.17654 -7.83464,-13.43143 -6.01096,-6.146046 -14.43266,-7.225971 -23.80342,-3.052355 -6.63213,2.953875 -14.32241,9.661205 -14.32241,12.491745 0,1.20092 -0.85966,0.0416 -2.10773,-2.8423 -4.46228,-10.311009 -8.72531,-16.845401 -14.87875,-22.806259 -6.61426,-6.407218 -13.08059,-9.666075 -21.71706,-10.944744 -8.0011,-1.184612 -18.12345,0.724071 -27.52971,5.191046 -3.66569,1.740821 -7.93503,4.454866 -7.93503,5.044345 0,0.147117 -1.12952,0.815771 -2.51007,1.485905 -6.46485,3.138137 -13.84219,8.592406 -21.14696,15.634467 -13.33293,12.85348 -24.57943,28.84258 -36.23659,51.51731 -6.40577,12.46006 -12.27021,25.96677 -16.71273,38.49206 -1.02018,2.87627 -1.98205,5.22958 -2.13751,5.22958 -0.15543,0 -0.28258,-0.10542 -0.28258,-0.23416 7e-5,-0.30199 1.88068,-13.33718 2.11707,-14.67407 0.12972,-0.7336 0.0569,-1.01469 -0.2626,-1.01469 -0.75523,0 -9.32985,4.22617 -12.05668,5.94235 -5.61782,3.53568 -12.32794,9.46039 -16.07729,14.19546 -3.95919,5.00003 -7.46253,10.91136 -9.87831,16.66808 -1.03777,2.47301 -3.03202,8.74536 -3.03126,9.53401 0,0.41791 3.14073,2.14838 3.50493,1.93139 0.14617,-0.0871 0.49573,0.1006 0.77679,0.41705 0.2811,0.31644 0.77625,0.71841 1.10038,0.89327 0.55182,0.29771 0.53848,0.35868 -0.2104,0.95932 -0.43979,0.35278 -1.08181,0.64609 -1.42671,0.6518 -1.58005,0.0262 -5.15998,1.1299 -8.11767,2.50274 -6.81512,3.16328 -13.53791,8.72401 -21.8992,18.11378 -5.78707,6.49893 -16.70412,21.84506 -20.10052,28.25538 -5.14046,9.70206 -8.36273,18.92555 -9.81662,28.09928 -0.63027,3.97686 -0.93041,11.44158 -0.59001,14.67406 l 0.26303,2.49772 1.08954,-2.65382 c 1.60793,-3.91651 6.34545,-12.71233 9.24889,-17.17178 3.26307,-5.01181 6.90214,-9.93196 11.16288,-15.09256 4.20416,-5.09209 15.52263,-16.0353 20.16228,-19.49382 10.72843,-7.99725 20.8801,-12.83716 31.6938,-15.11031 2.98905,-0.62833 4.28291,-0.71405 10.688,-0.70814 6.2875,0.005 7.72089,0.10005 10.44786,0.68714 9.86597,2.12393 19.70641,7.02071 28.57957,14.22168 4.19516,3.40457 10.84793,10.03058 14.72192,14.66267 1.68423,2.01386 3.1776,3.66156 3.31856,3.66156 0.8983,0 9.939,-6.88819 14.12899,-10.76503 l 3.20484,-2.96528 2.99433,2.06491 2.99435,2.06489 -0.92489,0.85157 c -8.70457,8.01452 -19.28871,17.5106 -20.89163,18.74395 -10.05796,7.73895 -11.39632,18.81527 -4.00123,33.11365 4.95539,9.58116 13.3876,20.01087 24.89192,30.78847 5.22627,4.89617 6.01664,5.48797 25.32046,18.95957 l 19.92578,13.90568 2.30282,-1.42292 2.30281,-1.42288 9.59103,3.96066 c 15.69339,6.48068 33.05145,12.97977 40.84535,15.29299 l 1.78133,0.52871 4.07686,-1.27992 c 2.24227,-0.70395 4.24508,-1.27993 4.45067,-1.27993 0.20561,0 2.04868,1.03672 4.09572,2.30377 l 3.72191,2.3038 3.64902,0.35633 c 6.05281,0.59104 8.81631,0.61897 16.92802,0.17096 z M 578.4251,194.34007 c -7.02351,-8.59564 -15.07284,-12.57938 -22.46172,-11.11666 -4.40135,0.8713 -9.53422,3.7601 -11.46665,6.45347 -0.48685,0.67858 -1.05227,1.23911 -1.25648,1.24562 -0.81617,0.0261 -2.30223,-2.14588 -2.90088,-4.2397 -0.84073,-2.94058 -0.85751,-8.23459 -0.0311,-9.8346 1.82097,-3.52574 10.39058,-6.11724 17.5405,-5.30438 11.48929,1.3062 19.25532,9.15905 22.3577,22.60766 0.30914,1.34012 0.49832,2.49805 0.42039,2.57318 -0.0779,0.0752 -1.0687,-0.99795 -2.20173,-2.38459 z M 103.78391,391.86278 c 1.6032,-0.46221 3.56016,-1.11521 4.34881,-1.45112 0.89942,-0.38308 1.50889,-0.4938 1.63508,-0.29694 0.26274,0.40981 6.66789,-5.11002 12.81954,-11.04761 8.10597,-7.8239 13.7679,-14.65707 16.06401,-19.387 1.21465,-2.50217 1.74461,-5.70471 2.21438,-13.38149 0.93283,-15.24367 -1.83748,-30.16847 -7.96031,-42.88534 -9.70369,-20.15422 -30.06771,-37.27709 -54.371968,-45.71809 l -3.550556,-1.23313 -4.222536,0.35538 c -27.88955,2.34726 -44.295045,12.15105 -48.317102,28.87391 -0.459591,1.91088 -0.592479,3.63473 -0.565609,7.33704 0.03977,5.47573 0.726476,9.31428 2.538439,14.18878 0.577946,1.5548 1.675801,4.51285 2.439682,6.57346 3.538123,9.54438 9.365042,22.49453 13.907573,30.9092 15.113612,27.99671 31.326209,44.10243 47.960193,47.6441 4.158602,0.88544 11.088174,0.66404 15.060374,-0.48115 z M 419.6381,352.73935 c -0.0704,-0.1288 -4.1135,-8.38296 -8.9846,-18.34259 -4.87115,-9.95963 -8.90305,-18.16696 -8.95976,-18.23852 -0.0567,-0.0716 -0.17565,-0.0602 -0.26432,0.0253 -0.23935,0.23076 -10.84467,27.5233 -10.84791,27.91694 0,0.18549 5.7906,2.046 12.87141,4.13447 7.0808,2.08846 13.53004,3.99513 14.33164,4.23699 1.76712,0.53329 2.01868,0.56958 1.85354,0.26742 z M 123.54052,200.73791 c 19.77826,-2.32809 37.93988,-9.77425 54.08779,-22.17567 4.90945,-3.77041 13.913,-12.53183 18.08683,-17.60044 13.17285,-15.99681 23.05843,-35.21644 30.16379,-58.64465 2.79222,-9.206691 5.99911,-22.497121 5.99911,-24.862346 0,-2.687273 -3.71291,-13.584413 -6.4926,-19.055348 -2.82569,-5.561468 -5.44337,-9.174732 -9.53141,-13.156483 -6.22414,-6.062331 -12.33717,-9.182478 -21.42483,-10.935444 -3.5159,-0.678201 -13.49309,-0.765166 -17.44865,-0.15209 -7.31796,1.134224 -15.42927,3.370355 -22.75429,6.272917 -7.86697,3.117311 -20.02009,9.408554 -19.70484,10.200501 0.0837,0.210161 -0.96823,1.271296 -2.33754,2.358079 -10.58175,8.398432 -24.95871,21.795784 -32.276686,30.077441 -32.875114,37.204313 -38.01005,70.639383 -15.293821,99.582493 4.218196,5.37447 12.839297,13.16876 18.778077,16.97715 1.85604,1.19023 2.63441,1.49528 4.24739,1.66453 2.75965,0.28959 11.26591,-0.005 15.90168,-0.55064 z m 312.38836,-1.22873 c 3.74942,-5.84818 11.41479,-15.16911 17.15771,-20.86339 7.13367,-7.07323 13.03827,-10.86442 18.65679,-11.979 l 2.62401,-0.52055 0.21078,-4.92886 c 0.47065,-11.00591 2.5886,-19.51858 6.41769,-25.79468 1.64284,-2.69271 5.84333,-6.59199 8.39112,-7.78939 3.5065,-1.64796 4.83111,-1.81746 8.18245,-1.04705 5.54062,1.27369 9.78088,4.12717 11.65436,7.84279 1.03632,2.05528 1.82454,5.42055 1.83228,7.82295 0.007,2.19984 -0.84649,7.03745 -1.62823,9.22786 l -0.5984,1.6766 1.55445,0 c 0.85495,0 2.43124,0.0883 3.50292,0.19632 l 1.94845,0.19632 0.35986,-1.52324 c 1.47686,-6.25153 2.09408,-16.11848 1.36745,-21.86089 -2.38485,-18.84778 -13.66604,-29.74368 -33.5864,-32.439289 l -3.42471,-0.463424 -4.02708,0.954988 c -12.15439,2.882305 -22.39988,8.867875 -32.66756,19.084875 -15.00065,14.9266 -27.69191,37.75093 -36.77607,66.1391 -1.37853,4.30784 -3.61047,12.2267 -4.31452,15.30772 l -0.1805,0.78978 3.79386,-0.52373 c 9.06864,-1.25189 18.16569,-1.5592 22.76104,-0.76889 2.35075,0.40428 4.89381,1.38418 5.32085,2.05022 0.35494,0.55365 0.74033,0.34695 1.4674,-0.78714 z m -71.49447,-15.42936 15.00943,-10.60112 1.00272,-3.05825 c 0.55151,-1.68204 0.97586,-3.08565 0.94302,-3.11912 -0.0328,-0.0335 -5.01093,1.32397 -11.06245,3.01655 -9.56713,2.67588 -11.75454,3.20842 -11.13768,2.71157 0.0742,-0.0598 5.01743,-2.7517 10.98491,-5.98205 5.96747,-3.23035 11.06497,-6.06317 11.32779,-6.29515 0.33311,-0.29405 0.52932,-1.35527 0.64776,-3.50393 l 0.16991,-3.08211 -2.26715,-0.85244 c -6.3118,-2.37321 -13.0395,-3.10024 -17.62336,-1.90449 -6.91625,1.80418 -11.91801,6.29944 -15.83973,14.23574 -1.66758,3.37463 -1.95424,4.22359 -2.11871,6.27457 -0.25888,3.22845 0.28601,8.7491 1.29108,13.08118 0.85581,3.68862 2.96857,9.68015 3.41349,9.68015 0.13726,0 7.00378,-4.7705 15.25897,-10.6011 z M 494.22,154.32501 c 0,-0.27195 0.43519,-0.35916 1.41674,-0.2839 2.82669,0.21672 4.64005,-1.69903 4.97459,-5.2555 0.31782,-3.37899 -1.68488,-7.20861 -4.50496,-8.61442 -2.37801,-1.18542 -5.86749,1.61373 -6.55327,5.25686 -0.30435,1.61665 0.34454,4.78081 1.34497,6.55875 1.01542,1.80454 3.32193,3.42803 3.32193,2.33821 z m 79.79296,-1.24661 c 0.48601,-3.96074 0.60595,-13.01163 0.2203,-16.6254 -1.43031,-13.40337 -7.15053,-21.87253 -16.12814,-23.87887 -0.93519,-0.20902 -1.70035,-0.50649 -1.70035,-0.66109 0,-0.56489 -3.7297,-0.26618 -5.90118,0.47264 -8.53988,2.90559 -15.28087,14.23958 -19.20855,32.29636 -0.46156,2.12193 -0.79408,3.90155 -0.73893,3.95471 0.0551,0.0531 2.70047,0.48962 5.8785,0.96989 5.21261,0.78775 5.80643,0.82468 6.06615,0.37733 1.47304,-2.53737 8.76728,-10.12757 12.08591,-12.57629 6.80684,-5.02255 11.47328,-4.49187 13.3259,1.51544 0.7891,2.5587 1.21043,7.24576 1.00251,11.15211 l -0.19329,3.63139 2.34329,0.47057 c 1.28884,0.25881 2.43408,0.48627 2.54504,0.50546 0.11093,0.0192 0.29221,-0.70273 0.40284,-1.60425 z m -11.13897,-0.31222 c -0.0224,-1.04092 -1.8477,-7.23094 -2.16219,-7.332 -0.61488,-0.19757 -2.61024,1.74617 -4.31539,4.20379 -0.89792,1.29412 -1.54882,2.43366 -1.44652,2.53231 0.20409,0.19673 5.19963,0.88432 6.87985,0.94695 0.65171,0.0243 1.04943,-0.10937 1.04425,-0.35105 z M 406.72254,121.26821 c 14.64681,-14.18548 16.22847,-15.81326 15.54619,-15.99962 -1.53447,-0.4191 -12.10996,-0.58682 -15.33411,-0.24319 -10.62692,1.13266 -17.06334,4.99285 -19.64735,11.78332 -1.01852,2.67659 -1.03284,8.84853 -0.0294,12.68421 0.80873,3.09148 2.62676,7.82483 2.94614,7.67036 0.11705,-0.0566 7.55039,-7.2094 16.51857,-15.89508 z"
       id="path3347"
       inkscape:connector-curvature="0" />
  </g>
</svg>
