<?xml version="1.0" encoding="UTF-8"?>
<svg id="katman_1" data-name="katman 1" xmlns="http://www.w3.org/2000/svg" viewBox="0 0 1369.84 1015.86">
  <defs>
    <style>
      .cls-1 {
        fill: #00acdb;
      }

      .cls-1, .cls-2, .cls-3 {
        fill-rule: evenodd;
      }

      .cls-1, .cls-2, .cls-3, .cls-4 {
        stroke-width: 0px;
      }

      .cls-5 {
        font-family: Ubuntu, Ubuntu;
        font-size: 171px;
      }

      .cls-5, .cls-3, .cls-4 {
        fill: #1d3969;
      }

      .cls-2 {
        fill: #0085a4;
      }
    </style>
  </defs>
  <g>
    <path class="cls-2" d="M548.14,465.98c.2-1.57-.06-3.39.65-4.69,18.85-34.87,47.27-59.74,82.94-75.83,20.83-9.39,42.66-16.84,64.52-23.64,14.98-4.65,30.73-6.95,46.24-9.75,17.51-3.18,35.06-6.24,52.71-8.46,21.61-2.74,43.36-4.55,65.05-6.74,27.58-2.78,55.2-5.35,82.77-8.36,18.12-1.98,36.29-3.95,54.23-7.03,16.83-2.87,33.62-6.43,50.03-11.11,18.39-5.27,36.56-11.51,54.4-18.43,22.59-8.75,43.05-21.48,62.04-36.55,26.09-20.73,46.63-46.39,64.87-74,3.45-5.22,5.96-11.05,8.89-16.6.58.17,1.16.33,1.75.5-1.47,6.6-2.53,13.3-4.44,19.75-9.5,32.22-24.55,61.81-45.12,88.2-17.78,22.83-39.81,41.38-64.29,56.96-22.68,14.44-46.62,26.27-72.33,34.1-21.13,6.43-42.26,13.46-63.9,17.53-27.38,5.15-55.17,8.81-82.96,10.89-40.82,3.05-81.8,3.95-122.7,6.14-29.9,1.57-59.87,2.74-89.59,6.04-21.25,2.34-42.5,6.6-63.09,12.35-29.19,8.18-55.39,22.6-76.82,44.69-1.45,1.5-2.61,3.3-3.92,4.95-.63-.29-1.28-.58-1.92-.88Z"/>
    <path class="cls-1" d="M530.63,359.25c.16-1.37-.06-2.94.56-4.07,16.33-30.18,40.93-51.71,71.81-65.64,18.04-8.13,36.93-14.59,55.85-20.47,12.97-4.03,26.62-6.02,40.04-8.45,15.17-2.75,30.37-5.4,45.64-7.34,18.72-2.36,37.53-3.93,56.32-5.81,23.88-2.41,47.8-4.65,71.65-7.25,15.68-1.71,31.41-3.42,46.95-6.09,14.57-2.49,29.11-5.56,43.31-9.63,15.92-4.55,31.64-9.96,47.09-15.94,19.55-7.59,37.28-18.6,53.7-31.64,22.6-17.95,40.37-40.17,56.16-64.07,2.98-4.51,5.16-9.56,7.71-14.36.5.15,1,.29,1.5.43-1.27,5.71-2.19,11.51-3.83,17.1-8.22,27.89-21.26,53.52-39.07,76.36-15.39,19.76-34.45,35.82-55.66,49.31-19.63,12.5-40.35,22.74-62.61,29.52-18.3,5.57-36.59,11.65-55.33,15.17-23.71,4.46-47.76,7.63-71.82,9.43-35.34,2.65-70.82,3.42-106.23,5.3-25.88,1.39-51.84,2.39-77.56,5.23-18.39,2.03-36.79,5.71-54.61,10.7-25.28,7.08-47.97,19.56-66.5,38.68-1.27,1.3-2.27,2.86-3.4,4.29-.55-.24-1.11-.5-1.67-.75Z"/>
    <path class="cls-3" d="M556.9,596.55c.23-1.85-.08-3.98.76-5.52,22.19-41,55.61-70.27,97.57-89.19,24.51-11.05,50.18-19.83,75.89-27.81,17.62-5.48,36.15-8.17,54.39-11.48,20.6-3.74,41.24-7.34,62.01-9.96,25.43-3.21,51-5.35,76.51-7.93,32.46-3.27,64.94-6.29,97.37-9.83,21.31-2.32,42.67-4.64,63.8-8.26,19.79-3.39,39.56-7.58,58.86-13.09,21.62-6.18,43-13.53,63.98-21.68,26.58-10.3,50.66-25.26,72.98-42.99,30.7-24.39,54.86-54.57,76.32-87.04,4.04-6.14,6.99-13,10.45-19.53.68.2,1.38.39,2.05.59-1.72,7.75-2.97,15.64-5.22,23.23-11.16,37.89-28.89,72.71-53.07,103.74-20.91,26.85-46.84,48.68-75.63,67.01-26.67,16.98-54.85,30.9-85.08,40.1-24.87,7.57-49.72,15.83-75.18,20.62-32.2,6.05-64.88,10.36-97.58,12.81-48.02,3.59-96.23,4.65-144.35,7.21-35.16,1.87-70.42,3.24-105.38,7.1-24.98,2.76-49.99,7.76-74.21,14.53-34.34,9.63-65.17,26.59-90.36,52.56-1.72,1.78-3.07,3.88-4.61,5.84-.75-.33-1.51-.69-2.27-1.03Z"/>
  </g>
  <path class="cls-4" d="M818.85,817.32c-77.68,75.36-183.49,121.88-300.01,121.88-237.81,0-431.29-193.46-431.29-431.28S281.03,76.65,518.83,76.65c116.52,0,222.32,46.53,300.01,121.88h91.5C817.4,77.92,671.64,0,507.93,0,227.86,0,0,227.86,0,507.92s227.86,507.93,507.93,507.93c163.71,0,309.47-77.92,402.42-198.54h-91.51Z"/>
  <text class="cls-5" transform="translate(381.91 745.77)"><tspan x="0" y="0">Smart Sense</tspan></text>
</svg>